<?xml version="1.0" encoding="utf-8"?>
<!-- Generator: Adobe Illustrator 17.1.0, SVG Export Plug-In . SVG Version: 6.00 Build 0)  -->
<!DOCTYPE svg PUBLIC "-//W3C//DTD SVG 1.1//EN" "http://www.w3.org/Graphics/SVG/1.1/DTD/svg11.dtd">
<svg version="1.1" id="Layer_1" xmlns="http://www.w3.org/2000/svg" xmlns:xlink="http://www.w3.org/1999/xlink" x="0px" y="0px"
	 viewBox="0 0 19.5 19.5" enable-background="new 0 0 19.5 19.5" xml:space="preserve">
<g>
	<path fill="#EA7723" d="M9.8,19.5C4.4,19.5,0,15.2,0,9.8C0,4.4,4.4,0,9.8,0c5.4,0,9.8,4.4,9.8,9.8C19.5,15.2,15.2,19.5,9.8,19.5z
		 M9.8,1.1C5,1.1,1.1,5,1.1,9.8c0,4.8,3.9,8.7,8.7,8.7c4.8,0,8.7-3.9,8.7-8.7C18.5,5,14.6,1.1,9.8,1.1z"/>
</g>
<g>
	<path fill="#EA7723" d="M9.5,15.1L4.3,6.4h1.1l4.4,7.2l4.4-7.2h1.1l-5.2,8.7H9.5z"/>
</g>
</svg>
