<?xml version="1.0" encoding="utf-8"?>
<!-- Generator: Adobe Illustrator 17.1.0, SVG Export Plug-In . SVG Version: 6.00 Build 0)  -->
<!DOCTYPE svg PUBLIC "-//W3C//DTD SVG 1.1//EN" "http://www.w3.org/Graphics/SVG/1.1/DTD/svg11.dtd">
<svg version="1.1" id="Layer_1" xmlns="http://www.w3.org/2000/svg" xmlns:xlink="http://www.w3.org/1999/xlink" x="0px" y="0px"
	 viewBox="0 0 18 18" enable-background="new 0 0 18 18" xml:space="preserve">
<g>
	<path fill="#EA7723" d="M9,18c-5,0-9-4-9-9c0-5,4-9,9-9s9,4,9,9C18,14,14,18,9,18z M9,1C4.6,1,1,4.6,1,9c0,4.4,3.6,8,8,8s8-3.6,8-8
		C17,4.6,13.4,1,9,1z"/>
</g>
<g>
	<path fill="#EA7723" d="M14.3,7.9v2h-4.2H8H3.8v-2H8h2.1H14.3z"/>
</g>
</svg>
